# xmcd
#
# Track frame offsets: 
#        150
#        9902
#        21015
#        34747
#        46525
#        59945
#        70397
#        82155
#        94155
#        105445
#        116410
#        128125
#        139957
#        151497
#        161242
#        172697
#        185595
#        197480
#        210165
#        221482
#        233027
#        245062
#        255487
#        267790
#
# Disc length: 3709 seconds
#
# Revision: 0
# Processed by: cddbd v1.5.1PL0 Copyright (c) Steve Scherf et al.
# Submitted via: ExactAudioCopy v0.95a3
#
DISCID=470e7b18
DTITLE=Hank Thompson - Six Pack To Go-Breakin' In Another Heart
DYEAR=1900
DGENRE=Country
TTITLE0=A Six Pack to Go
TTITLE1=Honky Tonk Town 
TTITLE2=Hangover Heart
TTITLE3=Berr Barrel Polka
TTITLE4=Drunkard's Blues
TTITLE5=Bubbles in My Beer
TTITLE6=Hangover Tavern
TTITLE7=The Wild SIde Of Life
TTITLE8=Bartender's Polka
TTITLE9=Anybody's Girl
TTITLE10=Warm Red Wine
TTITLE11=A Broken Heart and a Glass of Beer
TTITLE12=Paper Doll
TTITLE13=That's All There is to That
TTITLE14=There's No You
TTITLE15=You Always Hurt the One You Love
TTITLE16=Till Then
TTITLE17=September In The Rain
TTITLE18=It's Better To Have Love A Little
TTITLE19=Just an Old Flame
TTITLE20=How Do You Hold A Memory
TTITLE21=I'd Have Never Found Somebody New
TTITLE22=Don't Take It Out on Me
TTITLE23=Breakin' In Another Heart
EXTD=
EXTT0=
EXTT1=
EXTT2=
EXTT3=
EXTT4=
EXTT5=
EXTT6=
EXTT7=
EXTT8=
EXTT9=
EXTT10=
EXTT11=
EXTT12=
EXTT13=
EXTT14=
EXTT15=
EXTT16=
EXTT17=
EXTT18=
EXTT19=
EXTT20=
EXTT21=
EXTT22=
EXTT23=
PLAYORDER=
